# xmcd CD database file
#
# Track frame offsets:
#	150
#	18385
#	36577
#
# Disc length: 728 seconds
#
# Revision: 4
# Processed by: cddbd v1.5.2PL0 Copyright (c) Steve Scherf et al.
# Submitted via: CDex 1.82
#
DISCID=2002d603
DTITLE=Maki Goto - Yaruki! It's Easy
DYEAR=2002
DGENRE=Jpop
TTITLE0=Yaruki! It's Easy
TTITLE1=Kimagure
TTITLE2=Yaruki! It's Easy (Instrumental)
EXTD=YEAR: 2002
EXTT0=
EXTT1=
EXTT2=
PLAYORDER=
